<svg width="40" height="40" viewBox="0 0 40 40" fill="none" xmlns="http://www.w3.org/2000/svg">
<rect x="10" y="6.66666" width="20" height="28.3333" fill="white"/>
<path d="M20 0C8.92 0 0 8.92 0 20C0 31.08 8.92 40 20 40C31.08 40 40 31.08 40 20C40 8.92 31.08 0 20 0ZM24.6667 7.22167C24.8833 7.215 25.08 7.44833 24.9517 7.685L19.8783 16.985C19.8527 17.0324 19.8398 17.0857 19.8408 17.1396C19.8419 17.1935 19.857 17.2462 19.8845 17.2925C19.912 17.3389 19.9511 17.3773 19.998 17.404C20.0448 17.4307 20.0978 17.4449 20.1517 17.445H28.9183C29.2017 17.445 29.3383 17.79 29.1317 17.9833L13.765 32.325C13.49 32.5817 13.0817 32.22 13.3017 31.915L20.575 21.88C20.6083 21.8335 20.6282 21.7788 20.6325 21.7218C20.6368 21.6647 20.6254 21.6076 20.5994 21.5567C20.5734 21.5058 20.5339 21.463 20.4852 21.433C20.4365 21.403 20.3805 21.387 20.3233 21.3867H11.045C10.9833 21.3865 10.923 21.368 10.8718 21.3336C10.8205 21.2991 10.7807 21.2502 10.7573 21.1931C10.7339 21.1359 10.728 21.0732 10.7404 21.0127C10.7527 20.9522 10.7828 20.8967 10.8267 20.8533L24.46 7.315C24.5146 7.25795 24.5894 7.22446 24.6683 7.22167H24.6667Z" fill="#319795"/>
</svg>
