<svg width="24" height="24" viewBox="0 0 24 24" fill="none" xmlns="http://www.w3.org/2000/svg">
<g clip-path="url(#clip0)">
<path d="M22.251 11.82C22.2498 11.1316 22.0207 10.463 21.5996 9.91854C21.1785 9.37403 20.5889 8.98424 19.923 8.81L22.911 0H8.104L11.1 8.838C10.4532 9.02653 9.88497 9.4196 9.4804 9.9583C9.07584 10.497 8.85676 11.1523 8.856 11.826C8.856 12.869 9.376 13.793 10.169 14.362C9.85 14.8117 9.48686 15.2285 9.085 15.606C8.3458 16.31 7.48076 16.8688 6.535 17.253C5.701 16.69 5.34 15.697 5.666 14.807C6.37547 14.5866 6.98261 14.1196 7.37756 13.4904C7.77252 12.8612 7.92919 12.1113 7.81922 11.3766C7.70925 10.6419 7.33992 9.97083 6.77805 9.48482C6.21618 8.99881 5.4989 8.72999 4.756 8.727C3.93071 8.72806 3.13952 9.05637 2.55595 9.63995C1.97238 10.2235 1.64406 11.0147 1.643 11.84C1.643 12.688 1.99 13.466 2.546 14.022C2.498 14.119 2.449 14.217 2.4 14.321C1.935 15.28 1.407 16.364 1.205 17.58C0.802004 20.012 1.462 21.964 3.054 23.069C3.91563 23.6767 4.94463 24.002 5.999 24C7.826 24 9.681 23.083 11.474 22.193C12.753 21.561 14.073 20.901 15.372 20.581C15.852 20.463 16.352 20.394 16.88 20.317C17.95 20.164 19.055 20.005 20.048 19.427C20.6151 19.102 21.1042 18.657 21.4812 18.123C21.8581 17.5891 22.1137 16.9792 22.23 16.336C22.404 15.342 22.23 14.342 21.786 13.466C22.084 12.986 22.251 12.424 22.251 11.819V11.82ZM20.896 11.82C20.896 12.785 20.111 13.57 19.146 13.57C18.7826 13.569 18.4285 13.4551 18.1327 13.244C17.8369 13.0329 17.614 12.7351 17.4948 12.3918C17.3757 12.0485 17.3661 11.6767 17.4676 11.3277C17.569 10.9787 17.7764 10.6699 18.061 10.444L18.068 10.437C18.124 10.395 18.186 10.353 18.248 10.312C18.248 10.312 18.256 10.312 18.256 10.305C18.284 10.291 18.311 10.27 18.339 10.255C18.346 10.255 18.353 10.249 18.36 10.249C18.388 10.235 18.423 10.221 18.457 10.207C18.492 10.193 18.527 10.18 18.555 10.166C18.562 10.166 18.568 10.159 18.575 10.159C18.603 10.152 18.631 10.138 18.659 10.131C18.666 10.131 18.679 10.124 18.687 10.124C18.721 10.117 18.749 10.11 18.784 10.104H18.791L18.895 10.082C18.902 10.082 18.915 10.082 18.923 10.075C18.951 10.075 18.978 10.068 19.006 10.068H19.041C19.076 10.068 19.111 10.061 19.152 10.061H19.242C19.27 10.061 19.292 10.061 19.319 10.068H19.333C19.388 10.075 19.444 10.082 19.5 10.096C19.8945 10.1805 20.2482 10.3976 20.5022 10.7111C20.7561 11.0245 20.8951 11.4155 20.896 11.819V11.82ZM10.043 1.39H20.973L18.464 8.79C18.36 8.81 18.256 8.845 18.152 8.88L15.512 3.495L12.864 8.845C12.76 8.811 12.648 8.79 12.537 8.769L10.043 1.389V1.39ZM15.011 11.215C14.8832 10.5736 14.5547 9.98943 14.073 9.547L15.511 6.643L16.963 9.61C16.533 10.04 16.22 10.59 16.095 11.215H15.01H15.011ZM11.53 10.117C11.564 10.11 11.592 10.103 11.627 10.097H11.647C11.676 10.089 11.703 10.089 11.731 10.082H11.759C11.787 10.082 11.808 10.075 11.835 10.075H12.106C12.134 10.075 12.155 10.082 12.176 10.082C12.19 10.082 12.196 10.082 12.211 10.089C12.238 10.096 12.259 10.096 12.287 10.103C12.294 10.103 12.301 10.103 12.315 10.11L12.412 10.13H12.419C12.447 10.138 12.475 10.145 12.502 10.159C12.509 10.159 12.516 10.166 12.53 10.166C12.551 10.173 12.579 10.18 12.6 10.193C12.607 10.193 12.614 10.2 12.62 10.2C12.648 10.214 12.676 10.221 12.704 10.235H12.711C12.7431 10.2471 12.7734 10.2636 12.801 10.284H12.808C12.836 10.298 12.864 10.318 12.892 10.332C12.899 10.332 12.899 10.339 12.905 10.339C12.933 10.353 12.955 10.374 12.982 10.388L12.989 10.395C13.072 10.457 13.149 10.527 13.225 10.596L13.232 10.603C13.5417 10.9292 13.7136 11.3622 13.712 11.812C13.6967 12.2662 13.5054 12.6966 13.1788 13.0124C12.8521 13.3283 12.4154 13.5048 11.961 13.5048C11.5066 13.5048 11.07 13.3283 10.7433 13.0124C10.4166 12.6966 10.2254 12.2662 10.21 11.812C10.2089 11.4226 10.3383 11.044 10.5776 10.7368C10.8169 10.4295 11.1522 10.2113 11.53 10.117V10.117ZM4.692 10.068C5.658 10.068 6.443 10.854 6.443 11.819C6.443 12.784 5.658 13.57 4.693 13.57C3.728 13.57 2.941 12.785 2.941 11.82C2.941 10.855 3.727 10.068 4.692 10.068V10.068ZM20.855 16.093C20.776 16.5376 20.5998 16.9592 20.3392 17.3279C20.0785 17.6966 19.7398 18.0032 19.347 18.226C18.589 18.664 17.658 18.803 16.678 18.942C16.127 19.0126 15.5797 19.1097 15.038 19.233C13.593 19.588 12.204 20.283 10.856 20.95C9.132 21.804 7.506 22.61 5.999 22.61C5.22623 22.6148 4.47192 22.3739 3.845 21.922C2.316 20.866 2.392 18.886 2.573 17.802C2.74 16.787 3.205 15.836 3.65 14.925C3.678 14.87 3.699 14.821 3.727 14.765C3.879 14.821 4.039 14.863 4.206 14.891C3.942 16.364 4.692 17.885 6.152 18.636L6.416 18.775L6.7 18.671C7.916 18.24 9.042 17.538 10.036 16.6C10.5849 16.0882 11.0701 15.512 11.481 14.884C11.641 14.911 11.801 14.918 11.961 14.918C12.6489 14.9164 13.3169 14.6873 13.861 14.2664C14.4051 13.8455 14.7947 13.2564 14.969 12.591H16.136C16.3092 13.2574 16.6987 13.8475 17.2435 14.2687C17.7883 14.6898 18.4574 14.9182 19.146 14.918C19.722 14.918 20.256 14.758 20.716 14.488C20.896 15.008 20.952 15.551 20.855 16.093Z" fill="#C21325"/>
</g>
<defs>
<clipPath id="clip0">
<rect width="24" height="24" fill="white"/>
</clipPath>
</defs>
</svg>
