<svg width="40" height="40" viewBox="0 0 40 40" fill="none" xmlns="http://www.w3.org/2000/svg">
<g clip-path="url(#clip0_204_304)">
<path d="M23.5517 0.0783081C23.2634 0.0783081 22.9951 0.139975 22.7467 0.223308C23.2734 0.573308 23.5634 1.03997 23.7067 1.56664C23.7184 1.63831 23.7384 1.68997 23.7484 1.76164C23.7608 1.82316 23.768 1.88559 23.7701 1.94831C23.8101 2.85664 23.5317 2.97164 23.3367 3.50831C23.0367 4.19997 23.1201 4.94331 23.4801 5.54164C23.513 5.62188 23.5544 5.69841 23.6034 5.76997C23.2117 3.15664 25.3917 2.76497 25.7934 1.94831C25.8251 1.23497 25.2367 0.759975 24.7717 0.429975C24.4063 0.200357 23.9833 0.079001 23.5517 0.0799748V0.0783081ZM26.8367 0.666641C26.7967 0.904975 26.8267 0.843308 26.8167 0.966641C26.8067 1.04997 26.8067 1.15331 26.7967 1.23497C26.7751 1.31831 26.7551 1.40164 26.7234 1.48331C26.7034 1.56664 26.6734 1.64997 26.6401 1.73164L26.5284 1.96831C26.4951 2.00997 26.4767 2.05164 26.4451 2.09331L26.3834 2.18497C26.3342 2.2557 26.2825 2.32464 26.2284 2.39164C26.1667 2.45497 26.1151 2.52664 26.0417 2.57831V2.58831C25.9801 2.63997 25.9184 2.70164 25.8451 2.75497C25.6284 2.91997 25.3817 3.04331 25.1534 3.19831C25.0817 3.24831 25.0084 3.29164 24.9467 3.35331C24.8766 3.40263 24.8108 3.45783 24.7501 3.51831C24.6784 3.57997 24.6267 3.64164 24.5651 3.71497C24.5134 3.77664 24.4517 3.84831 24.4101 3.92164C24.3582 3.99143 24.3098 4.06374 24.2651 4.13831C24.2234 4.22164 24.1934 4.29331 24.1517 4.37497C24.1201 4.45831 24.0901 4.52997 24.0684 4.61331C24.0411 4.69843 24.0172 4.78461 23.9967 4.87164C23.9867 4.91331 23.9867 4.96497 23.9767 5.00497C23.9651 5.04664 23.9651 5.08831 23.9551 5.12997C23.9551 5.21331 23.9451 5.30497 23.9451 5.38831C23.9451 5.44997 23.9451 5.51164 23.9551 5.57331C23.9551 5.65664 23.9651 5.73997 23.9867 5.83164C23.9967 5.91497 24.0167 5.99831 24.0367 6.08164C24.0701 6.16331 24.0901 6.24497 24.1201 6.32831C24.1417 6.37831 24.1717 6.43164 24.1934 6.47331L21.8167 5.55331C21.4151 5.43997 21.0217 5.33664 20.6184 5.24331L19.9684 5.08831C19.3484 4.96497 18.7184 4.87164 18.0884 4.80997C18.0667 4.80997 18.0567 4.79997 18.0367 4.79997C16.9722 4.69333 15.9004 4.67939 14.8334 4.75831C14.2034 4.79997 13.5734 4.88164 12.9434 4.98497C12.4752 5.06564 12.0099 5.16237 11.5484 5.27497L11.0834 5.39831C10.9301 5.45997 10.7834 5.53164 10.6401 5.59497L10.2984 5.74997C10.2784 5.75997 10.2584 5.75997 10.2484 5.76997C10.1434 5.82164 10.0517 5.86331 9.95839 5.91497C9.8242 5.97417 9.69294 6.0398 9.56506 6.11164C9.49339 6.14164 9.42173 6.18331 9.35839 6.21497C9.3288 6.23334 9.29819 6.25003 9.26673 6.26497C9.17339 6.31831 9.08006 6.36997 8.99673 6.42164C8.91167 6.46866 8.82932 6.52041 8.75006 6.57664C8.67673 6.62664 8.60506 6.66831 8.54339 6.71997C8.53339 6.73164 8.52173 6.73164 8.51173 6.74164C8.45006 6.78331 8.37839 6.83497 8.31506 6.88664L8.29506 6.90664L8.14006 7.02997C8.12006 7.04164 8.09839 7.06164 8.07839 7.07164C8.02673 7.11331 7.97506 7.16497 7.92339 7.20497C7.91339 7.22664 7.89173 7.23831 7.88173 7.24664C7.82006 7.30997 7.75839 7.36164 7.69673 7.42331C7.68506 7.42331 7.68506 7.43331 7.67506 7.44331C7.61083 7.49945 7.5491 7.5584 7.49006 7.61997C7.47839 7.62997 7.47839 7.63997 7.46839 7.63997C7.41415 7.69307 7.36242 7.74869 7.31339 7.80664C7.29339 7.82664 7.26339 7.84664 7.24173 7.86664C7.18638 7.93212 7.1274 7.99444 7.06506 8.05331C7.05506 8.07331 7.03506 8.08497 7.02506 8.10331C6.94173 8.18664 6.87006 8.26997 6.78673 8.35331L6.75673 8.38331C6.59006 8.55997 6.41506 8.73497 6.2284 8.88997C6.0434 9.05664 5.84673 9.20997 5.65006 9.34497C5.25519 9.62703 4.82903 9.86248 4.38006 10.0466C4.1634 10.14 3.93506 10.2233 3.7084 10.295C3.27506 10.3883 2.83006 10.5633 2.4484 10.595C2.36506 10.595 2.2734 10.615 2.19006 10.625L1.93173 10.6866L1.6834 10.78C1.60006 10.8116 1.5184 10.8533 1.43673 10.8933C1.3634 10.945 1.28173 10.9866 1.2084 11.0383C1.13486 11.0915 1.06575 11.1506 1.00173 11.215C0.930062 11.265 0.856729 11.3383 0.795062 11.4C0.733396 11.4716 0.671729 11.5333 0.620062 11.6066C0.568396 11.69 0.506729 11.7616 0.465062 11.845C0.410775 11.9201 0.362301 11.9992 0.320062 12.0816C0.278396 12.175 0.236729 12.2583 0.206729 12.35C0.175062 12.4333 0.145062 12.5266 0.113396 12.6183C0.0933957 12.7016 0.071729 12.785 0.0633956 12.8683C0.0633956 12.8766 0.051729 12.8883 0.051729 12.8983C0.031729 12.9916 0.031729 13.115 0.0200623 13.1766C0.0100623 13.25 6.23237e-05 13.31 6.23237e-05 13.3833C-0.00185521 13.563 0.0405021 13.7405 0.123396 13.9V13.91C0.155062 13.9716 0.196729 14.035 0.238396 14.0966C0.278396 14.1583 0.321729 14.22 0.371729 14.2816C0.423396 14.3333 0.485062 14.3966 0.548396 14.4483C0.608619 14.5087 0.673852 14.5639 0.743396 14.6133C0.991729 14.83 1.0534 14.9016 1.3734 15.0666C1.42506 15.0983 1.47673 15.1183 1.54006 15.15C1.55006 15.15 1.56006 15.16 1.57006 15.16C1.57006 15.1816 1.57006 15.1916 1.58006 15.2116C1.60419 15.382 1.64896 15.5488 1.7134 15.7083C1.74673 15.77 1.76673 15.8316 1.79673 15.8933C1.8084 15.915 1.8184 15.935 1.83006 15.945C1.87006 16.0283 1.91173 16.1 1.95173 16.1733L2.10673 16.39C2.1584 16.4516 2.22173 16.5233 2.2834 16.5866C2.34506 16.6483 2.40673 16.7 2.48006 16.7616C2.48006 16.7616 2.49006 16.7716 2.50006 16.7716C2.56173 16.8233 2.6234 16.875 2.68673 16.9166C2.7586 16.9671 2.8344 17.0117 2.9134 17.05C2.98506 17.0916 3.0684 17.1333 3.15006 17.165C3.21666 17.195 3.28583 17.219 3.35673 17.2366C3.3684 17.2466 3.3784 17.2466 3.3984 17.2566C3.44006 17.2683 3.49173 17.2783 3.53173 17.2883C3.50173 17.8466 3.49173 18.3716 3.57506 18.5583C3.66673 18.765 4.12173 18.135 4.57506 17.4116C4.51506 18.125 4.4734 18.9616 4.57506 19.21C4.69006 19.4683 5.3084 18.6616 5.84673 17.7733C13.1717 16.08 19.8551 21.14 20.5567 28.29C20.4234 27.1733 19.0484 26.555 18.4184 26.71C18.1084 27.4733 17.5817 28.455 16.7351 29.065C16.8067 28.3816 16.7767 27.6816 16.6317 26.9983C16.4004 27.9495 15.9628 28.8382 15.3501 29.6016C14.3701 29.6733 13.3884 29.1983 12.8717 28.485C12.8301 28.455 12.8201 28.3933 12.7884 28.3516C12.7584 28.28 12.7267 28.2066 12.7051 28.135C12.6751 28.0658 12.6543 27.9929 12.6434 27.9183C12.6334 27.845 12.6334 27.7733 12.6334 27.69V27.535C12.6457 27.4617 12.663 27.3893 12.6851 27.3183C12.7067 27.2466 12.7267 27.175 12.7584 27.1016C12.7984 27.03 12.8301 26.9566 12.8817 26.885C13.0567 26.3883 13.0567 25.985 12.7367 25.7483C12.6746 25.7077 12.6087 25.6731 12.5401 25.645C12.5001 25.635 12.4484 25.615 12.4067 25.6033L12.3234 25.5733C12.2526 25.5504 12.1802 25.5331 12.1067 25.5216C12.0363 25.501 11.9634 25.4904 11.8901 25.49C11.815 25.4782 11.7393 25.4715 11.6634 25.47C11.6117 25.47 11.5601 25.48 11.5084 25.48C11.4312 25.4795 11.3543 25.4902 11.2801 25.5116C11.2084 25.5216 11.1367 25.5316 11.0634 25.5516C10.9897 25.5714 10.9173 25.5959 10.8467 25.625C10.7751 25.655 10.7134 25.6866 10.6401 25.7183C10.5784 25.7483 10.5167 25.79 10.4434 25.8216C8.03673 27.3916 9.47339 31.0683 11.1151 32.1333C10.4951 32.2466 9.86506 32.38 9.69006 32.515L9.66839 32.535C10.1134 32.8033 10.5784 33.0316 11.0634 33.2283C11.7251 33.445 12.4267 33.64 12.7367 33.7233V33.7333C13.5926 33.9091 14.4679 33.9718 15.3401 33.92C19.9167 33.6 23.6667 30.1183 24.3484 25.5316L24.4101 25.8C24.4417 25.9866 24.4817 26.1833 24.5034 26.3783V26.3883C24.5234 26.4816 24.5334 26.575 24.5451 26.6583V26.6983C24.5551 26.7916 24.5651 26.885 24.5651 26.9683C24.5751 27.0816 24.5851 27.195 24.5851 27.3083V27.475C24.5851 27.525 24.5967 27.5866 24.5967 27.6383C24.5967 27.7016 24.5851 27.7633 24.5851 27.825V27.97C24.5851 28.0416 24.5751 28.1033 24.5751 28.1766C24.5751 28.2183 24.5751 28.26 24.5651 28.31C24.5651 28.3833 24.5551 28.455 24.5551 28.5383C24.5451 28.5683 24.5451 28.6 24.5451 28.63L24.5117 28.8683C24.5117 28.9 24.5117 28.93 24.5034 28.9616C24.4917 29.065 24.4717 29.1583 24.4617 29.2616V29.2816L24.4001 29.5716V29.6016L24.3384 29.88C24.3384 29.8916 24.3267 29.9133 24.3267 29.9216C24.3077 30.0162 24.2838 30.1096 24.2551 30.2016V30.2316C24.2234 30.335 24.1934 30.4283 24.1717 30.5216C24.1617 30.5316 24.1617 30.5416 24.1617 30.5416L24.0684 30.8516C24.0284 30.955 23.9967 31.0483 23.9551 31.1516C23.9134 31.255 23.8834 31.3583 23.8417 31.4516C23.8001 31.555 23.7584 31.6466 23.7184 31.7516H23.7067C23.6667 31.8433 23.6234 31.9466 23.5734 32.04C23.5647 32.0646 23.5541 32.0886 23.5417 32.1116C23.5317 32.1216 23.5317 32.1333 23.5217 32.1433C22.8385 33.511 21.8441 34.6995 20.6184 35.6133C20.5351 35.665 20.4534 35.7283 20.3701 35.79C20.3501 35.81 20.3201 35.82 20.2984 35.84C20.2245 35.8946 20.1489 35.9468 20.0717 35.9966L20.1017 36.0583H20.1134L20.5467 35.9966H20.5567C20.8251 35.955 21.0934 35.9033 21.3617 35.8516C21.4351 35.8416 21.5167 35.82 21.5901 35.8L21.7351 35.7683C21.8067 35.7583 21.8784 35.7383 21.9517 35.7283C22.0134 35.7066 22.0751 35.695 22.1367 35.6766C23.1701 35.4266 24.1717 35.0866 25.1334 34.685C23.4731 36.9464 21.265 38.7484 18.7167 39.9216C19.9067 39.8383 21.0934 39.6433 22.2401 39.3116C26.3904 38.0914 29.8958 35.2904 32.0017 31.5116C31.5764 33.9037 30.6277 36.1723 29.2234 38.155C30.2246 37.4946 31.1497 36.7255 31.9817 35.8616C34.294 33.4476 35.812 30.3837 36.3317 27.0816C36.6817 28.715 36.7851 30.3983 36.6317 32.06C44.0884 21.6583 37.2501 10.8733 34.3884 8.03331C34.3784 8.01164 34.3684 8.00164 34.3684 7.98164C34.3584 7.99164 34.3584 7.99164 34.3584 8.00164C34.3584 7.99164 34.3584 7.99164 34.3467 7.98164C34.3467 8.10497 34.3367 8.22831 34.3267 8.35331C34.2981 8.58469 34.2636 8.81532 34.2234 9.04497C34.1734 9.27164 34.1101 9.49997 34.0484 9.72831C33.9751 9.94497 33.8934 10.1716 33.7984 10.3883C33.704 10.6023 33.6011 10.8125 33.4901 11.0183C33.2594 11.4233 32.9934 11.807 32.6951 12.165C32.5401 12.35 32.3751 12.515 32.2084 12.6816C32.111 12.7707 32.0109 12.8569 31.9084 12.94L31.6717 13.1466C31.4873 13.2922 31.2942 13.4263 31.0934 13.5483C30.896 13.6755 30.6924 13.7928 30.4834 13.9C30.2667 14.0033 30.0501 14.0966 29.8334 14.19C29.3921 14.3578 28.9355 14.4823 28.4701 14.5616C28.2317 14.6033 27.9951 14.6233 27.7667 14.645C27.602 14.6566 27.4369 14.6633 27.2717 14.665C27.0368 14.6617 26.8021 14.6478 26.5684 14.6233C26.3324 14.6048 26.098 14.5703 25.8667 14.52C25.6325 14.4775 25.4014 14.419 25.1751 14.345H25.1634C25.3917 14.3233 25.6184 14.3033 25.8467 14.2616C26.3119 14.181 26.7683 14.0566 27.2101 13.89C27.4367 13.8066 27.6534 13.7033 27.8601 13.6C28.0767 13.4966 28.2734 13.3833 28.4801 13.26C28.6767 13.1266 28.8717 12.9916 29.0584 12.8466C29.2451 12.7016 29.4201 12.5466 29.5851 12.3816C29.7601 12.2266 29.9151 12.0516 30.0701 11.875C30.2251 11.69 30.3701 11.5033 30.5034 11.3183C30.5251 11.2866 30.5467 11.245 30.5667 11.215C30.6701 11.0483 30.7734 10.8833 30.8667 10.7183C31.0945 10.3072 31.2809 9.87451 31.4234 9.42664C31.4967 9.20997 31.5484 8.98331 31.6001 8.75497C31.6417 8.51831 31.6834 8.29164 31.7034 8.06331C31.7234 7.82664 31.7451 7.58831 31.7451 7.36164C31.7451 7.19497 31.7334 7.02997 31.7234 6.86497C31.7028 6.63361 31.675 6.40294 31.6401 6.17331C31.5999 5.94046 31.5487 5.70965 31.4867 5.48164C31.4134 5.26497 31.3417 5.03664 31.2584 4.81997C31.1751 4.60331 31.0734 4.38664 30.9701 4.17997C30.8551 3.97331 30.7417 3.76664 30.6184 3.56997C30.4865 3.37689 30.3486 3.18791 30.2051 3.00331C30.0501 2.82664 29.8951 2.64997 29.7301 2.47497C29.6431 2.3863 29.5536 2.30016 29.4617 2.21664C28.9951 1.85497 28.5117 1.51497 28.0251 1.20497C27.9583 1.16642 27.8893 1.13191 27.8184 1.10164C27.512 0.914031 27.1818 0.768291 26.8367 0.668308V0.666641Z" fill="#E0234E"/>
</g>
<defs>
<clipPath id="clip0_204_304">
<rect width="40" height="40" fill="white"/>
</clipPath>
</defs>
</svg>
