<svg width="26" height="26" viewBox="0 0 26 26" fill="none" xmlns="http://www.w3.org/2000/svg">
<circle cx="13" cy="13" r="13" fill="white"/>
<path d="M12.5725 1C12.3962 1 12.2627 1.0013 12.2141 1.0067C12.1625 1.012 11.9982 1.0277 11.8505 1.0395C8.44168 1.3468 5.24878 3.1858 3.22648 6.0123C2.10038 7.584 1.38018 9.3666 1.10818 11.255C1.01198 11.914 1.00018 12.1087 1.00018 13.0024C1.00018 13.8961 1.01218 14.0908 1.10818 14.75C1.76018 19.256 4.96728 23.0419 9.31688 24.4445C10.0958 24.6956 10.9169 24.8668 11.8506 24.97C12.2142 25.01 13.786 25.01 14.1496 24.97C15.7613 24.7917 17.1268 24.393 18.4733 23.7057C18.6798 23.6001 18.7197 23.572 18.6916 23.5484C18.6728 23.5345 17.7929 22.3546 16.7373 20.9284L14.8183 18.3364L12.4136 14.7781C11.0905 12.8217 10.0019 11.2221 9.99248 11.2221C9.98308 11.2195 9.97378 12.8008 9.96898 14.7311C9.96228 18.1113 9.95968 18.2473 9.91738 18.3271C9.85638 18.4421 9.80938 18.4889 9.71098 18.5405C9.63598 18.5779 9.57018 18.585 9.21598 18.585H8.80998L8.70218 18.517C8.63533 18.4751 8.58102 18.416 8.54498 18.3458L8.49568 18.2402L8.50098 13.5372L8.50768 8.8318L8.58028 8.7403C8.61788 8.691 8.69768 8.6278 8.75388 8.5973C8.85008 8.5503 8.88768 8.5456 9.29348 8.5456C9.77218 8.5456 9.85188 8.5643 9.97618 8.7003C10.0115 8.738 11.3135 10.699 12.8712 13.0611C14.4484 15.4519 16.0265 17.8421 17.6056 20.2317L19.5058 23.1099L19.6018 23.0466C20.4536 22.493 21.3543 21.7048 22.0675 20.8839C23.5854 19.141 24.5638 17.0159 24.8922 14.7499C24.9883 14.0908 25 13.8959 25 13.0024C25 12.1087 24.988 11.914 24.8922 11.2548C24.24 6.7488 21.033 2.9629 16.6835 1.5603C15.9163 1.3116 15.0999 1.1403 14.185 1.0371C14.016 1.0195 13.1015 1.0005 12.5727 1.0001L12.5725 1ZM16.641 8.217C16.9883 8.217 17.0492 8.2223 17.1267 8.264C17.2394 8.3202 17.3307 8.4282 17.3637 8.5407C17.3823 8.6017 17.3871 9.906 17.3823 12.8451L17.3756 17.0626L16.632 15.9226L15.8859 14.7826V11.7166C15.8859 9.7346 15.8952 8.6203 15.9093 8.5664C15.9468 8.4351 16.0289 8.3318 16.1416 8.2709C16.2377 8.2215 16.2729 8.2169 16.6413 8.2169L16.641 8.217Z" fill="black"/>
</svg>
