<svg width="40" height="40" viewBox="0 0 40 40" fill="none" xmlns="http://www.w3.org/2000/svg">
<g clip-path="url(#clip0)">
<path d="M19.9966 40C19.4616 40 18.9283 39.86 18.46 39.5883L13.5666 36.6933C12.8366 36.285 13.1933 36.14 13.4333 36.055C14.4083 35.7167 14.605 35.6383 15.6466 35.0483C15.755 34.9867 15.8983 35.01 16.01 35.0767L19.77 37.3083C19.9066 37.3833 20.0983 37.3833 20.2233 37.3083L34.8816 28.8483C35.0183 28.77 35.105 28.6133 35.105 28.4517V11.535C35.105 11.37 35.0166 11.215 34.8766 11.1317L20.225 2.67832C20.09 2.59999 19.91 2.59999 19.7733 2.67832L5.12497 11.1333C4.98331 11.215 4.89331 11.375 4.89331 11.535V28.4517C4.89331 28.6133 4.98331 28.7667 5.12497 28.8433L9.13997 31.1633C11.3183 32.2533 12.6533 30.97 12.6533 29.68V12.9783C12.6533 12.7417 12.8433 12.5567 13.08 12.5567H14.9383C15.17 12.5567 15.3633 12.7433 15.3633 12.9783V29.68C15.3633 32.5883 13.78 34.255 11.0233 34.255C10.1766 34.255 9.50831 34.255 7.64664 33.3367L3.79997 31.125C2.84997 30.5767 2.26331 29.55 2.26331 28.4517V11.535C2.26331 10.4367 2.85164 9.40999 3.79997 8.86332L18.4583 0.393323C19.3866 -0.131677 20.6183 -0.131677 21.5383 0.393323L36.195 8.86332C37.145 9.41165 37.735 10.4367 37.735 11.535V28.4517C37.735 29.55 37.145 30.5733 36.195 31.125L21.5383 39.5883C21.0716 39.86 20.54 40 19.9966 40ZM31.8316 23.3217C31.8316 20.155 29.6916 19.3117 25.1866 18.7167C20.635 18.115 20.1716 17.8033 20.1716 16.7383C20.1716 15.8583 20.5633 14.6833 23.935 14.6833C26.9466 14.6833 28.0566 15.3317 28.5133 17.3617C28.5533 17.5533 28.7283 17.6933 28.925 17.6933H30.8266C30.945 17.6933 31.0566 17.6417 31.1366 17.5583C31.2166 17.4683 31.26 17.3533 31.2483 17.2317C30.9533 13.735 28.63 12.105 23.935 12.105C19.755 12.105 17.2616 13.8683 17.2616 16.8267C17.2616 20.035 19.7416 20.9217 23.7533 21.3183C28.5533 21.7883 28.925 22.49 28.925 23.4333C28.925 25.0717 27.61 25.77 24.5216 25.77C20.6433 25.77 19.79 24.7967 19.5033 22.8667C19.47 22.66 19.2933 22.5083 19.0816 22.5083H17.1866C16.9516 22.5083 16.7633 22.695 16.7633 22.93C16.7633 25.4 18.1066 28.3433 24.5216 28.3433C29.1683 28.345 31.8316 26.5167 31.8316 23.3217Z" fill="#339933"/>
</g>
<defs>
<clipPath id="clip0">
<rect width="40" height="40" fill="white"/>
</clipPath>
</defs>
</svg>
