<svg width="24" height="24" viewBox="0 0 24 24" fill="none" xmlns="http://www.w3.org/2000/svg">
<g clip-path="url(#clip0)">
<rect x="6" y="4" width="12" height="17" fill="white"/>
<path d="M16 0.259995L19.1 0.0999908L20 3.99999H16V0.259995Z" fill="white"/>
<path d="M16.71 0.243L16.59 2.953C16.5885 2.98728 16.5969 3.02126 16.6141 3.05094C16.6313 3.08062 16.6567 3.10476 16.6871 3.12053C16.7176 3.13629 16.752 3.14301 16.7861 3.13991C16.8203 3.1368 16.8529 3.124 16.88 3.103L17.94 2.303L18.84 3.003C18.8664 3.02072 18.8971 3.03112 18.9288 3.03314C18.9606 3.03516 18.9923 3.02873 19.0208 3.0145C19.0492 3.00027 19.0734 2.97875 19.0908 2.95214C19.1083 2.92553 19.1183 2.89477 19.12 2.863L19.02 0.103L20.35 0.00300025C20.5141 -0.00782712 20.6787 0.0151931 20.8335 0.0706318C20.9884 0.126071 21.1301 0.212744 21.2501 0.325272C21.37 0.4378 21.4655 0.573781 21.5307 0.724771C21.5959 0.875762 21.6294 1.03854 21.629 1.203V22.799C21.6292 22.9618 21.5963 23.1229 21.5323 23.2725C21.4683 23.4222 21.3745 23.5572 21.2566 23.6695C21.1387 23.7817 20.9993 23.8688 20.8467 23.9255C20.6941 23.9821 20.5316 24.0071 20.369 23.999L4.27301 23.279C3.97029 23.2665 3.68349 23.14 3.47018 22.9249C3.25687 22.7097 3.13285 22.4218 3.12301 22.119L2.37301 2.322C2.36354 2.16435 2.38529 2.00639 2.437 1.85717C2.48871 1.70794 2.56937 1.57039 2.67435 1.45241C2.77933 1.33442 2.90657 1.23832 3.04877 1.1696C3.19097 1.10089 3.34533 1.06093 3.50301 1.052L16.7 0.222L16.71 0.243ZM13.64 9.3C13.64 9.77 16.8 9.54 17.23 9.22C17.23 6.02 15.51 4.33 12.371 4.33C9.22101 4.33 7.47201 6.05 7.47201 8.62C7.47201 13.07 13.471 13.15 13.471 15.579C13.471 16.279 13.151 16.679 12.421 16.679C11.461 16.679 11.071 16.189 11.121 14.519C11.121 14.159 7.47201 14.039 7.35201 14.519C7.08201 18.549 9.58201 19.719 12.451 19.719C15.241 19.719 17.42 18.229 17.42 15.539C17.42 10.769 11.321 10.899 11.321 8.54C11.321 7.57 12.041 7.44 12.451 7.44C12.901 7.44 13.701 7.51 13.641 9.31L13.64 9.3Z" fill="#FF4785"/>
</g>
<defs>
<clipPath id="clip0">
<rect width="24" height="24" fill="white"/>
</clipPath>
</defs>
</svg>
