<svg width="40" height="40" viewBox="0 0 40 40" fill="none" xmlns="http://www.w3.org/2000/svg">
<g clip-path="url(#clip0_401_304)">
<path d="M20.0015 8C14.6681 8 11.3348 10.6667 10.0015 16C12.0015 13.3333 14.3348 12.3333 17.0015 13C18.5231 13.38 19.6098 14.4833 20.8148 15.7067C22.7765 17.6967 25.0448 20 30.0015 20C35.3348 20 38.6681 17.3333 40.0015 12C38.0015 14.6667 35.6681 15.6667 33.0015 15C31.4798 14.62 30.3931 13.5167 29.1881 12.2933C27.2281 10.3033 24.9598 8 20.0015 8ZM10.0015 20C4.66813 20 1.3348 22.6667 0.00146484 28C2.00146 25.3333 4.3348 24.3333 7.00147 25C8.52313 25.38 9.6098 26.4833 10.8148 27.7067C12.7765 29.6967 15.0448 32 20.0015 32C25.3348 32 28.6681 29.3333 30.0015 24C28.0015 26.6667 25.6681 27.6667 23.0015 27C21.4798 26.62 20.3931 25.5167 19.1881 24.2933C17.2281 22.3033 14.9598 20 10.0015 20Z" fill="#06B6D4"/>
</g>
<defs>
<clipPath id="clip0_401_304">
<rect width="40" height="40" fill="white"/>
</clipPath>
</defs>
</svg>
